<svg width="2079" height="960" xmlns="http://www.w3.org/2000/svg" xmlns:xlink="http://www.w3.org/1999/xlink" overflow="hidden"><defs><clipPath id="clip0"><rect x="0" y="0" width="2079" height="960"/></clipPath></defs><g clip-path="url(#clip0)"><rect x="0" y="0" width="2079" height="959.756" fill="#FFFFFF" fill-opacity="0"/><rect x="132" y="509.871" width="410" height="61.9842" stroke="#000000" stroke-width="4.00032" stroke-linejoin="round" stroke-miterlimit="10" fill="none"/><text font-family="Arial,Arial_MSFontService,sans-serif" font-weight="700" font-size="34" transform="matrix(1 0 0 0.999746 299.858 553)">Café</text><path d="M156.96 36.9906 231.941 36.9906 231.941 40.9896 156.96 40.9896Z" fill-rule="evenodd" transform="matrix(1.00025 0 0 1 142.512 519.548)"/><rect x="132" y="571.855" width="410" height="97.9751" stroke="#000000" stroke-width="4.00032" stroke-linejoin="round" stroke-miterlimit="10" fill="none"/><text font-family="Arial,Arial_MSFontService,sans-serif" font-weight="400" font-size="13" transform="matrix(1 0 0 0.999746 160.967 601)">●<tspan font-size="14" x="32.8693" y="0">Spiran </tspan><tspan font-size="13" x="0" y="26.0066">●</tspan><tspan font-size="14" x="32.8693" y="26.0066">Chava chava (infusion) </tspan><tspan font-size="13" x="0" y="52.0132">●</tspan><tspan font-size="14" x="32.8693" y="52.0132">Cirilian Sour Paste</tspan></text><rect x="132" y="347.912" width="410" height="62.984" stroke="#000000" stroke-width="4.00032" stroke-linejoin="round" stroke-miterlimit="10" fill="none"/><text font-family="Arial,Arial_MSFontService,sans-serif" font-weight="700" font-size="34" transform="matrix(1 0 0 0.999746 306.438 391)">Thé</text><path d="M163.958 36.9906 224.943 36.9906 224.943 40.9896 163.958 40.9896Z" fill-rule="evenodd" transform="matrix(1.00025 0 0 1 142.511 358.307)"/><rect x="132" y="410.896" width="410" height="97.9751" stroke="#000000" stroke-width="4.00032" stroke-linejoin="round" stroke-miterlimit="10" fill="none"/><text font-family="Arial,Arial_MSFontService,sans-serif" font-weight="400" font-size="13" transform="matrix(1 0 0 0.999746 160.963 440)">●<tspan font-size="14" x="32.8693" y="0">Thé chav</tspan><tspan font-size="13" x="0" y="26.0066">●</tspan><tspan font-size="14" x="32.8693" y="26.0066">Thé de tarine</tspan><tspan font-size="13" x="0" y="52.0132">●</tspan><tspan font-size="14" x="32.8693" y="52.0132">Thé Gatalentéen</tspan></text><rect x="132" y="135.965" width="410" height="61.9843" stroke="#000000" stroke-width="4.00032" stroke-linejoin="round" stroke-miterlimit="10" fill="none"/><text font-family="Arial,Arial_MSFontService,sans-serif" font-weight="700" font-size="34" transform="matrix(1 0 0 0.999746 144.594 179)">Boissons non<tspan font-size="34" x="226.852" y="0">-</tspan><tspan font-size="34" x="238.186" y="0">alcoolisé</tspan></text><path d="M1.99949 36.9906 98.2251 36.9906 194.451 36.9906 290.676 36.9906 386.902 36.9906 386.902 40.9896 290.676 40.9896 194.451 40.9896 98.2251 40.9896 1.99949 40.9896Z" fill-rule="evenodd" transform="matrix(1.00025 0 0 1 142.514 146.169)"/><rect x="132" y="197.95" width="410" height="150.962" stroke="#000000" stroke-width="4.00032" stroke-linejoin="round" stroke-miterlimit="10" fill="none"/><text font-family="Arial,Arial_MSFontService,sans-serif" font-weight="400" font-size="13" transform="matrix(1 0 0 0.999746 160.966 227)">●<tspan font-size="14" x="32.8693" y="0">Quanya</tspan><tspan font-size="13" x="0" y="26.0066">●</tspan><tspan font-size="14" x="32.8693" y="26.0066">Oratay</tspan><tspan font-size="13" x="0" y="52.0132">●</tspan><tspan font-size="14" x="32.8693" y="52.0132">Lait bleu</tspan><tspan font-size="13" x="0" y="77.0195">●</tspan><tspan font-size="14" x="32.8693" y="77.0195">Lait vert</tspan><tspan font-size="13" x="0" y="103.026">●</tspan><tspan font-size="14" x="32.8693" y="103.026">Lait noir (drogue)</tspan></text><rect x="542" y="135.965" width="378" height="61.9843" stroke="#000000" stroke-width="4.00032" stroke-linejoin="round" stroke-miterlimit="10" fill="none"/><text font-family="Arial,Arial_MSFontService,sans-serif" font-weight="700" font-size="34" transform="matrix(1 0 0 0.999746 678.946 179)">Bières</text><path d="M125.968 36.9906 178.455 36.9906 230.941 36.9906 230.941 40.9896 178.455 40.9896 125.968 40.9896Z" fill-rule="evenodd" transform="matrix(1.00025 0 0 1 552.522 146.169)"/><rect x="542" y="197.95" width="378" height="176.955" stroke="#000000" stroke-width="4.00032" stroke-linejoin="round" stroke-miterlimit="10" fill="none"/><text font-family="Arial,Arial_MSFontService,sans-serif" font-weight="400" font-size="13" transform="matrix(1 0 0 0.999746 571.031 227)">●<tspan font-size="14" x="32.8693" y="0">Bière de Batuu</tspan><tspan font-size="13" x="0" y="26.0066">●</tspan><tspan font-size="14" x="32.8693" y="26.0066">Bière de Black Spire</tspan><tspan font-size="13" x="0" y="52.0132">●</tspan><tspan font-size="14" x="32.8693" y="52.0132">Bière de la Moisson de Vinta</tspan><tspan font-size="13" x="0" y="77.0195">●</tspan><tspan font-size="14" x="32.8693" y="77.0195">Bière de Gizer</tspan><tspan font-size="13" x="0" y="103.026">●</tspan><tspan font-size="14" x="32.8693" y="103.026">Bière Trandoshanne</tspan><tspan font-size="13" x="0" y="129.033">●</tspan><tspan font-size="14" x="32.8693" y="129.033">Bière corélienne</tspan></text><rect x="542" y="373.905" width="378" height="61.9843" stroke="#000000" stroke-width="4.00032" stroke-linejoin="round" stroke-miterlimit="10" fill="none"/><text font-family="Arial,Arial_MSFontService,sans-serif" font-weight="700" font-size="34" transform="matrix(1 0 0 0.999746 554.186 417)">Alcools Mandaloriens</text><path d="M1.99949 36.9906 90.477 36.9906 178.955 36.9906 267.432 36.9906 355.91 36.9906 355.91 40.9896 267.432 40.9896 178.955 40.9896 90.477 40.9896 1.99949 40.9896Z" fill-rule="evenodd" transform="matrix(1.00025 0 0 1 552.519 384.27)"/><rect x="542" y="435.889" width="378" height="124.968" stroke="#000000" stroke-width="4.00032" stroke-linejoin="round" stroke-miterlimit="10" fill="none"/><text font-family="Arial,Arial_MSFontService,sans-serif" font-weight="400" font-size="13" transform="matrix(1 0 0 0.999746 571.032 466)">●<tspan font-size="14" x="32.8693" y="0">Ne’tra gal</tspan><tspan font-size="13" x="0" y="26.0066">●</tspan><tspan font-size="14" x="32.8693" y="26.0066">Kri’ger</tspan><tspan font-size="13" x="0" y="52.0132">●</tspan><tspan font-size="14" x="32.8693" y="52.0132">Shig</tspan><tspan font-size="13" x="0" y="77.0195">●</tspan><tspan font-size="14" x="32.8693" y="77.0195">Tihaar</tspan></text><path d="M731.283 558.947 1017.18 498.1 1030.15 559.007 744.253 619.854Z" stroke="#000000" stroke-width="4.00028" stroke-linejoin="round" stroke-miterlimit="10" fill="#F1C232" fill-rule="evenodd"/><text font-family="Arial,Arial_MSFontService,sans-serif" font-weight="400" font-size="17" transform="matrix(0.978083 -0.20811 0.208268 0.977835 747.02 583)">Meilleurs boissons Mandaloriennes </text><path d="M0 18.9956 66.7345 18.9956 133.469 18.9956 200.204 18.9956 266.938 18.9956 266.938 19.9954 200.204 19.9954 133.469 19.9954 66.7345 19.9954 0 19.9954Z" fill-rule="evenodd" transform="matrix(0.97831 -0.208158 0.208317 0.978061 743.48 566.716)"/><text font-family="Arial,Arial_MSFontService,sans-serif" font-weight="400" font-size="17" transform="matrix(0.978083 -0.20811 0.208268 0.977835 751.186 603)">existantes !</text><path d="M0 17.9958 43.4899 17.9958 86.9798 17.9958 86.9798 18.9956 43.4899 18.9956 0 18.9956Z" fill-rule="evenodd" transform="matrix(0.97831 -0.208158 0.208317 0.978061 747.854 587.251)"/><rect x="1606" y="435.889" width="297" height="57.9853" stroke="#000000" stroke-width="4.00032" stroke-linejoin="round" stroke-miterlimit="10" fill="none"/><text font-family="Arial,Arial_MSFontService,sans-serif" font-weight="700" font-size="32" transform="matrix(1 0 0 0.999746 1654.09 477)">Alcools léger</text><path d="M37.9904 33.9914 104.973 33.9914 171.956 33.9914 238.939 33.9914 238.939 36.9906 171.956 36.9906 104.973 36.9906 37.9904 36.9906Z" fill-rule="evenodd" transform="matrix(1.00025 0 0 1 1615.67 445.673)"/><rect x="1606" y="494.874" width="297" height="280.929" stroke="#000000" stroke-width="4.00032" stroke-linejoin="round" stroke-miterlimit="10" fill="none"/><text font-family="Arial,Arial_MSFontService,sans-serif" font-weight="400" font-size="19" transform="matrix(1 0 0 0.999746 1630.32 536)">●<tspan font-size="24" x="33.3361" y="0">Bliel au cactus</tspan><tspan font-size="19" x="0" y="44.0112">●</tspan><tspan font-size="24" x="33.3361" y="44.0112">Panaché Alderaanian</tspan><tspan font-size="19" x="0" y="87.0221">●</tspan><tspan font-size="24" x="33.3361" y="87.0221">Brandy</tspan><tspan font-size="19" x="0" y="130.033">●</tspan><tspan font-size="24" x="33.3361" y="130.033">Jus de Juma</tspan><tspan font-size="19" x="0" y="173.044">●</tspan><tspan font-size="24" x="33.3361" y="173.044">Urrqal</tspan><tspan font-size="19" x="-375.867" y="-296.075">●</tspan><tspan font-size="24" x="-342.531" y="-296.075">Tsiraki</tspan><tspan font-size="19" x="-375.867" y="-252.064">●</tspan><tspan font-size="24" x="-342.531" y="-252.064">Super Nova</tspan><tspan font-size="19" x="-375.867" y="-209.053">●</tspan><tspan font-size="24" x="-342.531" y="-209.053">Whisky Corellien</tspan><tspan font-size="19" x="-375.867" y="-166.042">●</tspan><tspan font-size="24" x="-342.531" y="-166.042">Blurrgfire</tspan><tspan font-size="19" x="-375.867" y="-123.031">●</tspan><tspan font-size="24" x="-342.531" y="-123.031">Skee du feu des étoiles</tspan><tspan font-size="19" x="-375.867" y="-80.0203">●</tspan><tspan font-size="24" x="-342.531" y="-80.0203">Rhum corellien</tspan><tspan font-size="19" x="-375.867" y="-36.0091">●</tspan><tspan font-size="24" x="-342.531" y="-36.0091">Rhum kowakien</tspan><tspan font-size="19" x="-375.867" y="7.00178">●</tspan><tspan font-size="24" x="-342.531" y="7.00178">Brandy Corellien</tspan><tspan font-size="19" x="-375.867" y="50.0127">●</tspan><tspan font-size="24" x="-342.531" y="50.0127">Brandy Khormien</tspan><tspan font-size="19" x="-375.867" y="93.0236">●</tspan><tspan font-size="24" x="-342.531" y="93.0236">Jus de jet</tspan><tspan font-size="19" x="-375.867" y="136.035">●</tspan><tspan font-size="24" x="-342.531" y="136.035">Eau de vie de Jogan (VIP)</tspan><tspan font-size="19" x="-375.867" y="180.046">●</tspan><tspan font-size="24" x="-342.531" y="180.046">Eau de vie Savarenne </tspan></text><rect x="1606" y="198.95" width="297" height="236.94" stroke="#000000" stroke-width="4.00032" stroke-linejoin="round" stroke-miterlimit="10" fill="none"/><text font-family="Arial,Arial_MSFontService,sans-serif" font-weight="400" font-size="19" transform="matrix(1 0 0 0.999746 1630.32 240)">●<tspan font-size="24" x="33.3361" y="0">Liqueur d'héliofruit</tspan><tspan font-size="19" x="0" y="44.0112">●</tspan><tspan font-size="24" x="33.3361" y="44.0112">Nectar Descente</tspan><tspan font-size="19" x="0" y="87.0221">●</tspan><tspan font-size="24" x="33.3361" y="87.0221">Whiskey tevraki</tspan><tspan font-size="19" x="0" y="130.033">●</tspan><tspan font-size="24" x="33.3361" y="130.033">Korva</tspan><tspan font-size="19" x="0" y="173.044">●</tspan><tspan font-size="24" x="33.3361" y="173.044">Kri'gee</tspan></text><path d="M1724.53 758.435 1976.2 716.962 1988.82 793.486 1737.14 834.959Z" stroke="#000000" stroke-width="4.00029" stroke-linejoin="round" stroke-miterlimit="10" fill="#F1C232" fill-rule="evenodd"/><text font-family="Arial,Arial_MSFontService,sans-serif" font-weight="400" font-size="16" transform="matrix(0.986686 -0.162554 0.162678 0.986436 1738.16 782)">Pub :<tspan font-size="16" x="41.8691" y="-0.196675">Si vous avez un souci,  des </tspan></text><path d="M0 17.9957 36.9911 17.9957 36.9911 18.9954 0 18.9954Z" fill-rule="evenodd" transform="matrix(0.986923 -0.162593 0.162717 0.986673 1735.56 766.149)"/><text font-family="Arial,Arial_MSFontService,sans-serif" font-weight="400" font-size="16" transform="matrix(0.986686 -0.162554 0.162678 0.986436 1741.25 801)">chasseurs de primes de la guilde <tspan font-size="16" x="0.120845" y="18.2674">de Zavod peuvent vous aider !</tspan></text><path d="M24.9152 147.092 208.218 61.394 232.857 114.068 49.5541 199.767Z" stroke="#000000" stroke-width="4.00014" stroke-linejoin="round" stroke-miterlimit="10" fill="#F1C232" fill-rule="evenodd"/><text font-family="Arial,Arial_MSFontService,sans-serif" font-weight="400" font-size="16" transform="matrix(0.905845 -0.423395 0.423718 0.905615 44.4552 166)">Pub :<tspan font-size="16" x="41.9581" y="-0.259628">Elara, championne </tspan></text><path d="M0 17.9971 36.994 17.9971 36.994 18.9969 0 18.9969Z" fill-rule="evenodd" transform="matrix(0.905992 -0.423464 0.423787 0.905762 37.6769 151.682)"/><text font-family="Arial,Arial_MSFontService,sans-serif" font-weight="400" font-size="16" transform="matrix(0.905845 -0.423395 0.423718 0.905615 52.5058 183)">du bar</text><rect x="1230" y="135.965" width="673" height="61.9843" stroke="#000000" stroke-width="4.00032" stroke-linejoin="round" stroke-miterlimit="10" fill="none"/><text font-family="Arial,Arial_MSFontService,sans-serif" font-weight="700" font-size="34" transform="matrix(1 0 0 0.999746 1475.83 179)">Alcool Fort</text><path d="M235.94 36.9906 326.417 36.9906 416.894 36.9906 416.894 40.9896 326.417 40.9896 235.94 40.9896Z" fill-rule="evenodd" transform="matrix(1.00025 0 0 1 1240.06 146.296)"/><rect x="920" y="135.965" width="310" height="61.9843" stroke="#000000" stroke-width="4.00032" stroke-linejoin="round" stroke-miterlimit="10" fill="none"/><text font-family="Arial,Arial_MSFontService,sans-serif" font-weight="700" font-size="34" transform="matrix(1 0 0 0.999746 1039.17 179)">Vins</text><path d="M107.973 36.9906 179.954 36.9906 179.954 40.9896 107.973 40.9896Z" fill-rule="evenodd" transform="matrix(1.00025 0 0 1 930.689 146.169)"/><rect x="920" y="197.95" width="310" height="279.929" stroke="#000000" stroke-width="4.00032" stroke-linejoin="round" stroke-miterlimit="10" fill="none"/><text font-family="Arial,Arial_MSFontService,sans-serif" font-weight="400" font-size="13" transform="matrix(1 0 0 0.999746 949.168 227)">●<tspan font-size="14" x="32.8693" y="0">Alderaanien</tspan><tspan font-size="14" x="113.542" y="0">blanc</tspan><tspan font-size="13" x="0" y="26.0066">●</tspan><tspan font-size="14" x="32.8693" y="26.0066">Andoan</tspan><tspan font-size="14" x="86.3735" y="26.0066">blanc</tspan><tspan font-size="13" x="0" y="52.0132">●</tspan><tspan font-size="14" x="32.8693" y="52.0132">Toniray</tspan><tspan font-size="13" x="0" y="77.0195">●</tspan><tspan font-size="14" x="32.8693" y="77.0195">Toniray</tspan><tspan font-size="14" x="84.7068" y="77.0195">Blanc</tspan><tspan font-size="13" x="0" y="103.026">●</tspan><tspan font-size="14" x="32.8693" y="103.026">Vin </tspan><tspan font-size="14" x="57.5379" y="103.026">Alderaanien</tspan><tspan font-size="14" x="138.211" y="103.026">/ Vin </tspan><tspan font-size="14" x="170.88" y="103.026">d’Aldérande</tspan><tspan font-size="13" x="0" y="129.033">●</tspan><tspan font-size="14" x="32.8693" y="129.033">Vin </tspan><tspan font-size="14" x="57.5379" y="129.033">Andoan</tspan><tspan font-size="13" x="0" y="154.039">●</tspan><tspan font-size="14" x="32.8693" y="154.039">Vin </tspan><tspan font-size="14" x="57.5379" y="154.039">corellien</tspan><tspan font-size="13" x="0" y="180.046">●</tspan><tspan font-size="14" x="32.8693" y="180.046">Vin de </tspan><tspan font-size="14" x="77.5396" y="180.046">sève</tspan><tspan font-size="14" x="111.876" y="180.046">corellien</tspan><tspan font-size="13" x="0" y="206.052">●</tspan><tspan font-size="14" x="32.8693" y="206.052">Vin de </tspan><tspan font-size="14" x="77.5396" y="206.052">Tarul</tspan></text><path d="M1813.57 84.0722 1988.82 185.224 1959.74 235.583 1784.49 134.431Z" stroke="#000000" stroke-width="4.00007" stroke-linejoin="round" stroke-miterlimit="10" fill="#F1C232" fill-rule="evenodd"/><text font-family="Arial,Arial_MSFontService,sans-serif" font-weight="400" font-size="16" transform="matrix(0.866025 0.499746 -0.500127 0.865806 1809.09 111)">Pub :<tspan font-size="16" x="41.8829" y="0.0798988">Elara, championne </tspan></text><path d="M1808.08 112.741 1840.13 131.232 1839.63 132.098 1807.58 113.607Z" fill-rule="evenodd"/><text font-family="Arial,Arial_MSFontService,sans-serif" font-weight="400" font-size="16" transform="matrix(0.866025 0.499746 -0.500127 0.865806 1799.58 127)">du bar</text><rect x="1230" y="197.95" width="376" height="577.853" stroke="#000000" stroke-width="4.00032" stroke-miterlimit="8" fill="none"/><path d="M334.125 679.773 616.47 604.138 645.263 711.566 362.918 787.201Z" stroke="#000000" stroke-width="4.00025" stroke-linejoin="round" stroke-miterlimit="10" fill="#F1C232" fill-rule="evenodd"/><text font-family="Arial,Arial_MSFontService,sans-serif" font-weight="400" font-size="19" transform="matrix(0.965926 -0.258688 0.258885 0.965681 351.376 704)">Pub <tspan font-size="19" x="38.3579" y="-0.0800428">: Vous avez besoin de </tspan></text><path d="M0 19.9956 37.9916 19.9956 37.9916 20.9954 0 20.9954Z" fill-rule="evenodd" transform="matrix(0.966138 -0.258745 0.258942 0.965893 346.717 686.867)"/><text font-family="Arial,Arial_MSFontService,sans-serif" font-weight="400" font-size="19" transform="matrix(0.965926 -0.258688 0.258885 0.965681 357.33 726)">mercenaires ? Vous avez besoin <tspan font-size="19" x="-0.195454" y="22.7295">de sécurité ? Appelez la lame </tspan><tspan font-size="19" x="-0.132015" y="44.4928">écarlate !</tspan></text></g></svg>